<mxfile host="app.diagrams.net" modified="2022-04-08T10:26:04.482Z" agent="5.0 (Windows NT 10.0; Win64; x64) AppleWebKit/537.36 (KHTML, like Gecko) Chrome/100.0.4896.75 Safari/537.36" etag="rNsruIb8RrvG1Vxp1p8w" version="17.4.0" type="github">
  <diagram id="R2lEEEUBdFMjLlhIrx00" name="Page-1">
    <mxGraphModel dx="1943" dy="1640" grid="1" gridSize="10" guides="1" tooltips="1" connect="1" arrows="1" fold="1" page="1" pageScale="1" pageWidth="850" pageHeight="1100" math="0" shadow="0" extFonts="Permanent Marker^https://fonts.googleapis.com/css?family=Permanent+Marker">
      <root>
        <mxCell id="0" />
        <mxCell id="1" parent="0" />
        <mxCell id="U0DUnpZqwil9Vg-zqySL-77" style="edgeStyle=orthogonalEdgeStyle;rounded=0;orthogonalLoop=1;jettySize=auto;html=1;exitX=0.5;exitY=1;exitDx=0;exitDy=0;entryX=0.5;entryY=0;entryDx=0;entryDy=0;fontSize=11;" edge="1" parent="1" source="U0DUnpZqwil9Vg-zqySL-2" target="U0DUnpZqwil9Vg-zqySL-15">
          <mxGeometry relative="1" as="geometry" />
        </mxCell>
        <mxCell id="U0DUnpZqwil9Vg-zqySL-78" style="edgeStyle=orthogonalEdgeStyle;rounded=0;orthogonalLoop=1;jettySize=auto;html=1;exitX=0.5;exitY=1;exitDx=0;exitDy=0;entryX=0.538;entryY=0.009;entryDx=0;entryDy=0;entryPerimeter=0;fontSize=11;" edge="1" parent="1" source="U0DUnpZqwil9Vg-zqySL-2" target="U0DUnpZqwil9Vg-zqySL-5">
          <mxGeometry relative="1" as="geometry" />
        </mxCell>
        <mxCell id="U0DUnpZqwil9Vg-zqySL-158" style="edgeStyle=orthogonalEdgeStyle;rounded=0;orthogonalLoop=1;jettySize=auto;html=1;exitX=1;exitY=0.5;exitDx=0;exitDy=0;fontSize=11;" edge="1" parent="1" source="U0DUnpZqwil9Vg-zqySL-2" target="U0DUnpZqwil9Vg-zqySL-159">
          <mxGeometry relative="1" as="geometry">
            <mxPoint x="830" y="790" as="targetPoint" />
          </mxGeometry>
        </mxCell>
        <mxCell id="U0DUnpZqwil9Vg-zqySL-2" value="academicStaff" style="swimlane;" vertex="1" parent="1">
          <mxGeometry x="500" y="690" width="200" height="200" as="geometry" />
        </mxCell>
        <mxCell id="U0DUnpZqwil9Vg-zqySL-75" style="edgeStyle=orthogonalEdgeStyle;rounded=0;orthogonalLoop=1;jettySize=auto;html=1;exitX=0.5;exitY=1;exitDx=0;exitDy=0;fontSize=11;" edge="1" parent="1" source="U0DUnpZqwil9Vg-zqySL-3" target="U0DUnpZqwil9Vg-zqySL-8">
          <mxGeometry relative="1" as="geometry" />
        </mxCell>
        <mxCell id="U0DUnpZqwil9Vg-zqySL-76" style="edgeStyle=orthogonalEdgeStyle;rounded=0;orthogonalLoop=1;jettySize=auto;html=1;exitX=0.5;exitY=1;exitDx=0;exitDy=0;entryX=0.5;entryY=0;entryDx=0;entryDy=0;fontSize=11;" edge="1" parent="1" source="U0DUnpZqwil9Vg-zqySL-3" target="U0DUnpZqwil9Vg-zqySL-14">
          <mxGeometry relative="1" as="geometry" />
        </mxCell>
        <mxCell id="U0DUnpZqwil9Vg-zqySL-3" value="adminStaff" style="swimlane;" vertex="1" parent="1">
          <mxGeometry x="90" y="710" width="200" height="200" as="geometry" />
        </mxCell>
        <mxCell id="U0DUnpZqwil9Vg-zqySL-5" value="sessional" style="swimlane;" vertex="1" parent="1">
          <mxGeometry x="670" y="1000" width="200" height="200" as="geometry" />
        </mxCell>
        <mxCell id="U0DUnpZqwil9Vg-zqySL-72" value="contactEndDate" style="text;html=1;align=center;verticalAlign=middle;resizable=0;points=[];autosize=1;strokeColor=none;fillColor=none;fontSize=11;" vertex="1" parent="U0DUnpZqwil9Vg-zqySL-5">
          <mxGeometry x="40" y="90" width="90" height="20" as="geometry" />
        </mxCell>
        <mxCell id="U0DUnpZqwil9Vg-zqySL-73" value="contactStartDate" style="text;html=1;align=center;verticalAlign=middle;resizable=0;points=[];autosize=1;strokeColor=none;fillColor=none;fontSize=11;" vertex="1" parent="U0DUnpZqwil9Vg-zqySL-5">
          <mxGeometry x="40" y="60" width="100" height="20" as="geometry" />
        </mxCell>
        <mxCell id="U0DUnpZqwil9Vg-zqySL-74" value="hourlyRate" style="text;html=1;align=center;verticalAlign=middle;resizable=0;points=[];autosize=1;strokeColor=none;fillColor=none;fontSize=11;" vertex="1" parent="U0DUnpZqwil9Vg-zqySL-5">
          <mxGeometry x="50" y="120" width="70" height="20" as="geometry" />
        </mxCell>
        <mxCell id="U0DUnpZqwil9Vg-zqySL-8" value="fulltime" style="swimlane;" vertex="1" parent="1">
          <mxGeometry x="-110" y="1000" width="200" height="200" as="geometry" />
        </mxCell>
        <mxCell id="U0DUnpZqwil9Vg-zqySL-65" value="jobEndDate" style="text;html=1;align=center;verticalAlign=middle;resizable=0;points=[];autosize=1;strokeColor=none;fillColor=none;fontSize=11;" vertex="1" parent="U0DUnpZqwil9Vg-zqySL-8">
          <mxGeometry x="35" y="100" width="70" height="20" as="geometry" />
        </mxCell>
        <mxCell id="U0DUnpZqwil9Vg-zqySL-14" value="sessional" style="swimlane;" vertex="1" parent="1">
          <mxGeometry x="160" y="1000" width="200" height="200" as="geometry" />
        </mxCell>
        <mxCell id="U0DUnpZqwil9Vg-zqySL-67" value="contactEndDate" style="text;html=1;align=center;verticalAlign=middle;resizable=0;points=[];autosize=1;strokeColor=none;fillColor=none;fontSize=11;" vertex="1" parent="U0DUnpZqwil9Vg-zqySL-14">
          <mxGeometry x="40" y="80" width="90" height="20" as="geometry" />
        </mxCell>
        <mxCell id="U0DUnpZqwil9Vg-zqySL-66" value="contactStartDate" style="text;html=1;align=center;verticalAlign=middle;resizable=0;points=[];autosize=1;strokeColor=none;fillColor=none;fontSize=11;" vertex="1" parent="U0DUnpZqwil9Vg-zqySL-14">
          <mxGeometry x="40" y="50" width="100" height="20" as="geometry" />
        </mxCell>
        <mxCell id="U0DUnpZqwil9Vg-zqySL-68" value="hourlyRate" style="text;html=1;align=center;verticalAlign=middle;resizable=0;points=[];autosize=1;strokeColor=none;fillColor=none;fontSize=11;" vertex="1" parent="U0DUnpZqwil9Vg-zqySL-14">
          <mxGeometry x="50" y="110" width="70" height="20" as="geometry" />
        </mxCell>
        <mxCell id="U0DUnpZqwil9Vg-zqySL-15" value="fulltime" style="swimlane;" vertex="1" parent="1">
          <mxGeometry x="425" y="1000" width="200" height="200" as="geometry" />
        </mxCell>
        <mxCell id="U0DUnpZqwil9Vg-zqySL-69" value="jobStartDate" style="text;html=1;align=center;verticalAlign=middle;resizable=0;points=[];autosize=1;strokeColor=none;fillColor=none;fontSize=11;" vertex="1" parent="U0DUnpZqwil9Vg-zqySL-15">
          <mxGeometry x="26" y="60" width="80" height="20" as="geometry" />
        </mxCell>
        <mxCell id="U0DUnpZqwil9Vg-zqySL-70" value="salary" style="text;html=1;align=center;verticalAlign=middle;resizable=0;points=[];autosize=1;strokeColor=none;fillColor=none;fontSize=11;" vertex="1" parent="U0DUnpZqwil9Vg-zqySL-15">
          <mxGeometry x="35" y="90" width="50" height="20" as="geometry" />
        </mxCell>
        <mxCell id="U0DUnpZqwil9Vg-zqySL-71" value="teachingLoad" style="text;html=1;align=center;verticalAlign=middle;resizable=0;points=[];autosize=1;strokeColor=none;fillColor=none;fontSize=11;" vertex="1" parent="U0DUnpZqwil9Vg-zqySL-15">
          <mxGeometry x="26" y="120" width="80" height="20" as="geometry" />
        </mxCell>
        <mxCell id="U0DUnpZqwil9Vg-zqySL-62" style="edgeStyle=orthogonalEdgeStyle;rounded=0;orthogonalLoop=1;jettySize=auto;html=1;entryX=0.5;entryY=0;entryDx=0;entryDy=0;fontSize=11;" edge="1" parent="1" source="U0DUnpZqwil9Vg-zqySL-35" target="U0DUnpZqwil9Vg-zqySL-3">
          <mxGeometry relative="1" as="geometry" />
        </mxCell>
        <mxCell id="U0DUnpZqwil9Vg-zqySL-63" style="edgeStyle=orthogonalEdgeStyle;rounded=0;orthogonalLoop=1;jettySize=auto;html=1;entryX=0.5;entryY=0;entryDx=0;entryDy=0;fontSize=11;" edge="1" parent="1" source="U0DUnpZqwil9Vg-zqySL-35" target="U0DUnpZqwil9Vg-zqySL-2">
          <mxGeometry relative="1" as="geometry" />
        </mxCell>
        <mxCell id="U0DUnpZqwil9Vg-zqySL-35" value="Identified" style="rhombus;whiteSpace=wrap;html=1;fontSize=22;" vertex="1" parent="1">
          <mxGeometry x="290" y="500" width="230" height="150" as="geometry" />
        </mxCell>
        <mxCell id="U0DUnpZqwil9Vg-zqySL-61" style="edgeStyle=orthogonalEdgeStyle;rounded=0;orthogonalLoop=1;jettySize=auto;html=1;fontSize=11;" edge="1" parent="1" source="U0DUnpZqwil9Vg-zqySL-36" target="U0DUnpZqwil9Vg-zqySL-35">
          <mxGeometry relative="1" as="geometry" />
        </mxCell>
        <mxCell id="U0DUnpZqwil9Vg-zqySL-36" value="Staff" style="swimlane;fontSize=11;fontStyle=1" vertex="1" parent="1">
          <mxGeometry x="285" y="150" width="240" height="220" as="geometry" />
        </mxCell>
        <mxCell id="U0DUnpZqwil9Vg-zqySL-37" value="staffNo" style="text;html=1;align=center;verticalAlign=middle;resizable=0;points=[];autosize=1;strokeColor=none;fillColor=none;fontSize=11;" vertex="1" parent="U0DUnpZqwil9Vg-zqySL-36">
          <mxGeometry x="15" y="40" width="50" height="20" as="geometry" />
        </mxCell>
        <mxCell id="U0DUnpZqwil9Vg-zqySL-38" value="firstName" style="text;html=1;align=center;verticalAlign=middle;resizable=0;points=[];autosize=1;strokeColor=none;fillColor=none;fontSize=11;" vertex="1" parent="U0DUnpZqwil9Vg-zqySL-36">
          <mxGeometry x="15" y="60" width="60" height="20" as="geometry" />
        </mxCell>
        <mxCell id="U0DUnpZqwil9Vg-zqySL-39" value="lastName" style="text;html=1;align=center;verticalAlign=middle;resizable=0;points=[];autosize=1;strokeColor=none;fillColor=none;fontSize=11;" vertex="1" parent="U0DUnpZqwil9Vg-zqySL-36">
          <mxGeometry x="15" y="80" width="60" height="20" as="geometry" />
        </mxCell>
        <mxCell id="U0DUnpZqwil9Vg-zqySL-40" value="preferredNameGiven" style="text;html=1;align=center;verticalAlign=middle;resizable=0;points=[];autosize=1;strokeColor=none;fillColor=none;fontSize=11;" vertex="1" parent="U0DUnpZqwil9Vg-zqySL-36">
          <mxGeometry x="10" y="100" width="120" height="20" as="geometry" />
        </mxCell>
        <mxCell id="U0DUnpZqwil9Vg-zqySL-41" value="DoB" style="text;html=1;align=center;verticalAlign=middle;resizable=0;points=[];autosize=1;strokeColor=none;fillColor=none;fontSize=11;" vertex="1" parent="U0DUnpZqwil9Vg-zqySL-36">
          <mxGeometry x="15" y="120" width="40" height="20" as="geometry" />
        </mxCell>
        <mxCell id="U0DUnpZqwil9Vg-zqySL-42" value="Email" style="text;html=1;align=center;verticalAlign=middle;resizable=0;points=[];autosize=1;strokeColor=none;fillColor=none;fontSize=11;" vertex="1" parent="U0DUnpZqwil9Vg-zqySL-36">
          <mxGeometry x="20" y="140" width="40" height="20" as="geometry" />
        </mxCell>
        <mxCell id="U0DUnpZqwil9Vg-zqySL-43" value="gender" style="text;html=1;align=center;verticalAlign=middle;resizable=0;points=[];autosize=1;strokeColor=none;fillColor=none;fontSize=11;" vertex="1" parent="U0DUnpZqwil9Vg-zqySL-36">
          <mxGeometry x="20" y="160" width="50" height="20" as="geometry" />
        </mxCell>
        <mxCell id="U0DUnpZqwil9Vg-zqySL-44" value="mailingAddress" style="text;html=1;align=center;verticalAlign=middle;resizable=0;points=[];autosize=1;strokeColor=none;fillColor=none;fontSize=11;" vertex="1" parent="U0DUnpZqwil9Vg-zqySL-36">
          <mxGeometry x="20" y="180" width="90" height="20" as="geometry" />
        </mxCell>
        <mxCell id="U0DUnpZqwil9Vg-zqySL-45" value="telephoneNo" style="text;html=1;align=center;verticalAlign=middle;resizable=0;points=[];autosize=1;strokeColor=none;fillColor=none;fontSize=11;" vertex="1" parent="U0DUnpZqwil9Vg-zqySL-36">
          <mxGeometry x="20" y="200" width="80" height="20" as="geometry" />
        </mxCell>
        <mxCell id="U0DUnpZqwil9Vg-zqySL-64" value="jobStartDate" style="text;html=1;align=center;verticalAlign=middle;resizable=0;points=[];autosize=1;strokeColor=none;fillColor=none;fontSize=11;" vertex="1" parent="1">
          <mxGeometry x="-80" y="1060" width="80" height="20" as="geometry" />
        </mxCell>
        <mxCell id="U0DUnpZqwil9Vg-zqySL-82" style="edgeStyle=orthogonalEdgeStyle;rounded=0;orthogonalLoop=1;jettySize=auto;html=1;exitX=0.5;exitY=1;exitDx=0;exitDy=0;fontSize=11;" edge="1" parent="1" source="U0DUnpZqwil9Vg-zqySL-79">
          <mxGeometry relative="1" as="geometry">
            <mxPoint x="1340" y="430" as="targetPoint" />
          </mxGeometry>
        </mxCell>
        <mxCell id="U0DUnpZqwil9Vg-zqySL-79" value="building" style="swimlane;fontSize=11;" vertex="1" parent="1">
          <mxGeometry x="1240" y="160" width="200" height="200" as="geometry" />
        </mxCell>
        <mxCell id="U0DUnpZqwil9Vg-zqySL-80" value="uniqueNumbers" style="text;html=1;align=center;verticalAlign=middle;resizable=0;points=[];autosize=1;strokeColor=none;fillColor=none;fontSize=11;" vertex="1" parent="U0DUnpZqwil9Vg-zqySL-79">
          <mxGeometry x="20" y="50" width="90" height="20" as="geometry" />
        </mxCell>
        <mxCell id="U0DUnpZqwil9Vg-zqySL-111" style="edgeStyle=orthogonalEdgeStyle;rounded=0;orthogonalLoop=1;jettySize=auto;html=1;entryX=0.5;entryY=0;entryDx=0;entryDy=0;fontSize=11;" edge="1" parent="1" source="U0DUnpZqwil9Vg-zqySL-83" target="U0DUnpZqwil9Vg-zqySL-85">
          <mxGeometry relative="1" as="geometry" />
        </mxCell>
        <mxCell id="U0DUnpZqwil9Vg-zqySL-83" value="level" style="swimlane;fontSize=11;" vertex="1" parent="1">
          <mxGeometry x="1240" y="430" width="200" height="200" as="geometry" />
        </mxCell>
        <mxCell id="U0DUnpZqwil9Vg-zqySL-84" value="levelNo" style="text;html=1;align=center;verticalAlign=middle;resizable=0;points=[];autosize=1;strokeColor=none;fillColor=none;fontSize=11;" vertex="1" parent="U0DUnpZqwil9Vg-zqySL-83">
          <mxGeometry x="30" y="40" width="50" height="20" as="geometry" />
        </mxCell>
        <mxCell id="U0DUnpZqwil9Vg-zqySL-108" style="edgeStyle=orthogonalEdgeStyle;rounded=0;orthogonalLoop=1;jettySize=auto;html=1;fontSize=11;" edge="1" parent="1" source="U0DUnpZqwil9Vg-zqySL-85" target="U0DUnpZqwil9Vg-zqySL-89">
          <mxGeometry relative="1" as="geometry" />
        </mxCell>
        <mxCell id="U0DUnpZqwil9Vg-zqySL-109" style="edgeStyle=orthogonalEdgeStyle;rounded=0;orthogonalLoop=1;jettySize=auto;html=1;entryX=0.5;entryY=0;entryDx=0;entryDy=0;fontSize=11;" edge="1" parent="1" source="U0DUnpZqwil9Vg-zqySL-85" target="U0DUnpZqwil9Vg-zqySL-90">
          <mxGeometry relative="1" as="geometry">
            <Array as="points">
              <mxPoint x="1340" y="940" />
              <mxPoint x="1060" y="940" />
            </Array>
          </mxGeometry>
        </mxCell>
        <mxCell id="U0DUnpZqwil9Vg-zqySL-135" style="edgeStyle=orthogonalEdgeStyle;rounded=0;orthogonalLoop=1;jettySize=auto;html=1;entryX=0.5;entryY=0;entryDx=0;entryDy=0;fontSize=11;" edge="1" parent="1" source="U0DUnpZqwil9Vg-zqySL-85" target="U0DUnpZqwil9Vg-zqySL-87">
          <mxGeometry relative="1" as="geometry">
            <Array as="points">
              <mxPoint x="1340" y="940" />
              <mxPoint x="1620" y="940" />
            </Array>
          </mxGeometry>
        </mxCell>
        <mxCell id="U0DUnpZqwil9Vg-zqySL-85" value="room" style="swimlane;fontSize=11;" vertex="1" parent="1">
          <mxGeometry x="1240" y="710" width="200" height="200" as="geometry" />
        </mxCell>
        <mxCell id="U0DUnpZqwil9Vg-zqySL-86" value="roomNo" style="text;html=1;align=center;verticalAlign=middle;resizable=0;points=[];autosize=1;strokeColor=none;fillColor=none;fontSize=11;" vertex="1" parent="U0DUnpZqwil9Vg-zqySL-85">
          <mxGeometry x="20" y="40" width="50" height="20" as="geometry" />
        </mxCell>
        <mxCell id="U0DUnpZqwil9Vg-zqySL-140" style="edgeStyle=orthogonalEdgeStyle;rounded=0;orthogonalLoop=1;jettySize=auto;html=1;entryX=0.457;entryY=0.007;entryDx=0;entryDy=0;entryPerimeter=0;fontSize=11;" edge="1" parent="1" source="U0DUnpZqwil9Vg-zqySL-87" target="U0DUnpZqwil9Vg-zqySL-136">
          <mxGeometry relative="1" as="geometry" />
        </mxCell>
        <mxCell id="U0DUnpZqwil9Vg-zqySL-141" style="edgeStyle=orthogonalEdgeStyle;rounded=0;orthogonalLoop=1;jettySize=auto;html=1;fontSize=11;" edge="1" parent="1" source="U0DUnpZqwil9Vg-zqySL-87" target="U0DUnpZqwil9Vg-zqySL-97">
          <mxGeometry relative="1" as="geometry" />
        </mxCell>
        <mxCell id="U0DUnpZqwil9Vg-zqySL-87" value="teachingRoom" style="swimlane;fontSize=11;startSize=23;" vertex="1" parent="1">
          <mxGeometry x="1520" y="1000" width="200" height="200" as="geometry" />
        </mxCell>
        <mxCell id="U0DUnpZqwil9Vg-zqySL-133" value="&lt;span style=&quot;font-weight: 700&quot;&gt;ComputerLab&lt;/span&gt;" style="text;html=1;align=center;verticalAlign=middle;resizable=0;points=[];autosize=1;strokeColor=none;fillColor=none;fontSize=11;" vertex="1" parent="U0DUnpZqwil9Vg-zqySL-87">
          <mxGeometry x="25" y="70" width="90" height="20" as="geometry" />
        </mxCell>
        <mxCell id="U0DUnpZqwil9Vg-zqySL-134" value="&lt;span style=&quot;font-weight: 700&quot;&gt;LectureTheatre&lt;/span&gt;" style="text;html=1;align=center;verticalAlign=middle;resizable=0;points=[];autosize=1;strokeColor=none;fillColor=none;fontSize=11;" vertex="1" parent="U0DUnpZqwil9Vg-zqySL-87">
          <mxGeometry x="25" y="110" width="90" height="20" as="geometry" />
        </mxCell>
        <mxCell id="U0DUnpZqwil9Vg-zqySL-132" value="&lt;span style=&quot;font-weight: 700&quot;&gt;laboratory&lt;/span&gt;" style="text;html=1;align=center;verticalAlign=middle;resizable=0;points=[];autosize=1;strokeColor=none;fillColor=none;fontSize=11;" vertex="1" parent="U0DUnpZqwil9Vg-zqySL-87">
          <mxGeometry x="25" y="40" width="70" height="20" as="geometry" />
        </mxCell>
        <mxCell id="U0DUnpZqwil9Vg-zqySL-89" value="meeting" style="swimlane;fontSize=11;" vertex="1" parent="1">
          <mxGeometry x="1240" y="1000" width="200" height="200" as="geometry" />
        </mxCell>
        <mxCell id="U0DUnpZqwil9Vg-zqySL-90" value="office" style="swimlane;fontSize=11;" vertex="1" parent="1">
          <mxGeometry x="960" y="1000" width="200" height="200" as="geometry" />
        </mxCell>
        <mxCell id="U0DUnpZqwil9Vg-zqySL-97" value="systemstores" style="swimlane;fontSize=11;" vertex="1" parent="1">
          <mxGeometry x="1700" y="1310" width="200" height="200" as="geometry" />
        </mxCell>
        <mxCell id="U0DUnpZqwil9Vg-zqySL-112" value="1.*" style="text;html=1;align=center;verticalAlign=middle;resizable=0;points=[];autosize=1;strokeColor=none;fillColor=none;fontSize=11;" vertex="1" parent="1">
          <mxGeometry x="1335" y="360" width="30" height="20" as="geometry" />
        </mxCell>
        <mxCell id="U0DUnpZqwil9Vg-zqySL-113" value="1.*" style="text;html=1;align=center;verticalAlign=middle;resizable=0;points=[];autosize=1;strokeColor=none;fillColor=none;fontSize=11;" vertex="1" parent="1">
          <mxGeometry x="1335" y="630" width="30" height="20" as="geometry" />
        </mxCell>
        <mxCell id="U0DUnpZqwil9Vg-zqySL-114" value="1.1" style="text;html=1;align=center;verticalAlign=middle;resizable=0;points=[];autosize=1;strokeColor=none;fillColor=none;fontSize=11;" vertex="1" parent="1">
          <mxGeometry x="1340" y="920" width="30" height="20" as="geometry" />
        </mxCell>
        <mxCell id="U0DUnpZqwil9Vg-zqySL-118" value="*.1" style="text;html=1;align=center;verticalAlign=middle;resizable=0;points=[];autosize=1;strokeColor=none;fillColor=none;fontSize=11;" vertex="1" parent="1">
          <mxGeometry x="405" y="370" width="30" height="20" as="geometry" />
        </mxCell>
        <mxCell id="U0DUnpZqwil9Vg-zqySL-119" value="*.*" style="text;html=1;align=center;verticalAlign=middle;resizable=0;points=[];autosize=1;strokeColor=none;fillColor=none;fontSize=11;" vertex="1" parent="1">
          <mxGeometry x="185" y="910" width="30" height="20" as="geometry" />
        </mxCell>
        <mxCell id="U0DUnpZqwil9Vg-zqySL-120" value="*.*" style="text;html=1;align=center;verticalAlign=middle;resizable=0;points=[];autosize=1;strokeColor=none;fillColor=none;fontSize=11;" vertex="1" parent="1">
          <mxGeometry x="605" y="890" width="30" height="20" as="geometry" />
        </mxCell>
        <mxCell id="U0DUnpZqwil9Vg-zqySL-125" style="edgeStyle=orthogonalEdgeStyle;rounded=0;orthogonalLoop=1;jettySize=auto;html=1;entryX=0.5;entryY=0;entryDx=0;entryDy=0;fontSize=11;" edge="1" parent="1" source="U0DUnpZqwil9Vg-zqySL-121" target="U0DUnpZqwil9Vg-zqySL-122">
          <mxGeometry relative="1" as="geometry" />
        </mxCell>
        <mxCell id="U0DUnpZqwil9Vg-zqySL-126" style="edgeStyle=orthogonalEdgeStyle;rounded=0;orthogonalLoop=1;jettySize=auto;html=1;fontSize=11;" edge="1" parent="1" source="U0DUnpZqwil9Vg-zqySL-121" target="U0DUnpZqwil9Vg-zqySL-124">
          <mxGeometry relative="1" as="geometry" />
        </mxCell>
        <mxCell id="U0DUnpZqwil9Vg-zqySL-142" style="edgeStyle=orthogonalEdgeStyle;rounded=0;orthogonalLoop=1;jettySize=auto;html=1;fontSize=11;" edge="1" parent="1" source="U0DUnpZqwil9Vg-zqySL-121" target="U0DUnpZqwil9Vg-zqySL-143">
          <mxGeometry relative="1" as="geometry">
            <mxPoint x="1200" y="-230" as="targetPoint" />
          </mxGeometry>
        </mxCell>
        <mxCell id="U0DUnpZqwil9Vg-zqySL-121" value="UC" style="swimlane;fontSize=11;" vertex="1" parent="1">
          <mxGeometry x="780" y="-330" width="200" height="200" as="geometry" />
        </mxCell>
        <mxCell id="U0DUnpZqwil9Vg-zqySL-161" style="edgeStyle=orthogonalEdgeStyle;rounded=0;orthogonalLoop=1;jettySize=auto;html=1;entryX=0.5;entryY=0;entryDx=0;entryDy=0;fontSize=11;" edge="1" parent="1" source="U0DUnpZqwil9Vg-zqySL-122" target="U0DUnpZqwil9Vg-zqySL-36">
          <mxGeometry relative="1" as="geometry" />
        </mxCell>
        <mxCell id="U0DUnpZqwil9Vg-zqySL-122" value="UCCstaff" style="swimlane;fontSize=11;" vertex="1" parent="1">
          <mxGeometry x="590" y="-50" width="200" height="200" as="geometry" />
        </mxCell>
        <mxCell id="U0DUnpZqwil9Vg-zqySL-150" style="edgeStyle=orthogonalEdgeStyle;rounded=0;orthogonalLoop=1;jettySize=auto;html=1;exitX=0.5;exitY=1;exitDx=0;exitDy=0;entryX=0;entryY=0.5;entryDx=0;entryDy=0;fontSize=11;" edge="1" parent="1" source="U0DUnpZqwil9Vg-zqySL-124" target="U0DUnpZqwil9Vg-zqySL-79">
          <mxGeometry relative="1" as="geometry" />
        </mxCell>
        <mxCell id="U0DUnpZqwil9Vg-zqySL-124" value="UCcampus" style="swimlane;fontSize=11;" vertex="1" parent="1">
          <mxGeometry x="960" y="-60" width="200" height="200" as="geometry" />
        </mxCell>
        <mxCell id="U0DUnpZqwil9Vg-zqySL-136" value="No Facilities" style="swimlane;fontSize=11;" vertex="1" parent="1">
          <mxGeometry x="1335" y="1310" width="200" height="200" as="geometry" />
        </mxCell>
        <mxCell id="U0DUnpZqwil9Vg-zqySL-137" value="&lt;span style=&quot;font-weight: 700&quot;&gt;recording&lt;/span&gt;" style="text;html=1;align=center;verticalAlign=middle;resizable=0;points=[];autosize=1;strokeColor=none;fillColor=none;fontSize=11;" vertex="1" parent="1">
          <mxGeometry x="1735" y="1350" width="70" height="20" as="geometry" />
        </mxCell>
        <mxCell id="U0DUnpZqwil9Vg-zqySL-138" value="&lt;span style=&quot;font-weight: 700&quot;&gt;SoundSystem&lt;/span&gt;" style="text;html=1;align=center;verticalAlign=middle;resizable=0;points=[];autosize=1;strokeColor=none;fillColor=none;fontSize=11;" vertex="1" parent="1">
          <mxGeometry x="1725" y="1410" width="90" height="20" as="geometry" />
        </mxCell>
        <mxCell id="U0DUnpZqwil9Vg-zqySL-139" value="&lt;span style=&quot;font-weight: 700&quot;&gt;computers&lt;/span&gt;" style="text;html=1;align=center;verticalAlign=middle;resizable=0;points=[];autosize=1;strokeColor=none;fillColor=none;fontSize=11;" vertex="1" parent="1">
          <mxGeometry x="1735" y="1450" width="70" height="20" as="geometry" />
        </mxCell>
        <mxCell id="U0DUnpZqwil9Vg-zqySL-145" style="edgeStyle=orthogonalEdgeStyle;rounded=0;orthogonalLoop=1;jettySize=auto;html=1;entryX=0;entryY=0.5;entryDx=0;entryDy=0;fontSize=11;" edge="1" parent="1" source="U0DUnpZqwil9Vg-zqySL-143" target="U0DUnpZqwil9Vg-zqySL-144">
          <mxGeometry relative="1" as="geometry" />
        </mxCell>
        <mxCell id="U0DUnpZqwil9Vg-zqySL-143" value="Time Table" style="swimlane;fontSize=11;" vertex="1" parent="1">
          <mxGeometry x="1100" y="-330" width="200" height="200" as="geometry" />
        </mxCell>
        <mxCell id="U0DUnpZqwil9Vg-zqySL-146" style="edgeStyle=orthogonalEdgeStyle;rounded=0;orthogonalLoop=1;jettySize=auto;html=1;exitX=1;exitY=0.5;exitDx=0;exitDy=0;fontSize=11;" edge="1" parent="1" source="U0DUnpZqwil9Vg-zqySL-144" target="U0DUnpZqwil9Vg-zqySL-147">
          <mxGeometry relative="1" as="geometry">
            <mxPoint x="1730" y="-229.66666666666652" as="targetPoint" />
          </mxGeometry>
        </mxCell>
        <mxCell id="U0DUnpZqwil9Vg-zqySL-144" value="Trimester" style="swimlane;fontSize=11;" vertex="1" parent="1">
          <mxGeometry x="1450" y="-330" width="200" height="200" as="geometry" />
        </mxCell>
        <mxCell id="U0DUnpZqwil9Vg-zqySL-157" style="edgeStyle=orthogonalEdgeStyle;rounded=0;orthogonalLoop=1;jettySize=auto;html=1;exitX=0.5;exitY=1;exitDx=0;exitDy=0;entryX=1;entryY=0.5;entryDx=0;entryDy=0;fontSize=11;" edge="1" parent="1" source="U0DUnpZqwil9Vg-zqySL-147" target="U0DUnpZqwil9Vg-zqySL-85">
          <mxGeometry relative="1" as="geometry">
            <Array as="points">
              <mxPoint x="1835" y="810" />
            </Array>
          </mxGeometry>
        </mxCell>
        <mxCell id="U0DUnpZqwil9Vg-zqySL-147" value="unit" style="swimlane;fontSize=11;" vertex="1" parent="1">
          <mxGeometry x="1735" y="-329.9966666666665" width="200" height="200" as="geometry" />
        </mxCell>
        <mxCell id="U0DUnpZqwil9Vg-zqySL-148" value="unitNo" style="text;html=1;align=center;verticalAlign=middle;resizable=0;points=[];autosize=1;strokeColor=none;fillColor=none;fontSize=11;" vertex="1" parent="U0DUnpZqwil9Vg-zqySL-147">
          <mxGeometry x="20" y="39.9966666666665" width="50" height="20" as="geometry" />
        </mxCell>
        <mxCell id="U0DUnpZqwil9Vg-zqySL-149" value="unitName" style="text;html=1;align=center;verticalAlign=middle;resizable=0;points=[];autosize=1;strokeColor=none;fillColor=none;fontSize=11;" vertex="1" parent="U0DUnpZqwil9Vg-zqySL-147">
          <mxGeometry x="20" y="69.9966666666665" width="60" height="20" as="geometry" />
        </mxCell>
        <mxCell id="U0DUnpZqwil9Vg-zqySL-156" value="type" style="text;html=1;align=center;verticalAlign=middle;resizable=0;points=[];autosize=1;strokeColor=none;fillColor=none;fontSize=11;" vertex="1" parent="U0DUnpZqwil9Vg-zqySL-147">
          <mxGeometry x="25" y="109.9966666666665" width="40" height="20" as="geometry" />
        </mxCell>
        <mxCell id="U0DUnpZqwil9Vg-zqySL-160" style="edgeStyle=orthogonalEdgeStyle;rounded=0;orthogonalLoop=1;jettySize=auto;html=1;exitX=1;exitY=0.5;exitDx=0;exitDy=0;entryX=0;entryY=0.5;entryDx=0;entryDy=0;fontSize=11;" edge="1" parent="1" source="U0DUnpZqwil9Vg-zqySL-159" target="U0DUnpZqwil9Vg-zqySL-85">
          <mxGeometry relative="1" as="geometry" />
        </mxCell>
        <mxCell id="U0DUnpZqwil9Vg-zqySL-159" value="teacher" style="swimlane;fontSize=11;" vertex="1" parent="1">
          <mxGeometry x="860" y="690" width="200" height="200" as="geometry" />
        </mxCell>
        <mxCell id="U0DUnpZqwil9Vg-zqySL-163" value="1.*" style="text;html=1;align=center;verticalAlign=middle;resizable=0;points=[];autosize=1;strokeColor=none;fillColor=none;fontSize=11;" vertex="1" parent="1">
          <mxGeometry x="850" y="-130" width="30" height="20" as="geometry" />
        </mxCell>
        <mxCell id="U0DUnpZqwil9Vg-zqySL-164" value="*.*" style="text;html=1;align=center;verticalAlign=middle;resizable=0;points=[];autosize=1;strokeColor=none;fillColor=none;fontSize=11;" vertex="1" parent="1">
          <mxGeometry x="560" y="50" width="30" height="20" as="geometry" />
        </mxCell>
        <mxCell id="U0DUnpZqwil9Vg-zqySL-165" value="*.*" style="text;html=1;align=center;verticalAlign=middle;resizable=0;points=[];autosize=1;strokeColor=none;fillColor=none;fontSize=11;" vertex="1" parent="1">
          <mxGeometry x="705" y="760" width="30" height="20" as="geometry" />
        </mxCell>
        <mxCell id="U0DUnpZqwil9Vg-zqySL-166" value="*.*" style="text;html=1;align=center;verticalAlign=middle;resizable=0;points=[];autosize=1;strokeColor=none;fillColor=none;fontSize=11;" vertex="1" parent="1">
          <mxGeometry x="1065" y="770" width="30" height="20" as="geometry" />
        </mxCell>
        <mxCell id="U0DUnpZqwil9Vg-zqySL-167" value="1.*" style="text;html=1;align=center;verticalAlign=middle;resizable=0;points=[];autosize=1;strokeColor=none;fillColor=none;fontSize=11;" vertex="1" parent="1">
          <mxGeometry x="1055" y="140" width="30" height="20" as="geometry" />
        </mxCell>
        <mxCell id="U0DUnpZqwil9Vg-zqySL-168" value="1.1" style="text;html=1;align=center;verticalAlign=middle;resizable=0;points=[];autosize=1;strokeColor=none;fillColor=none;fontSize=11;" vertex="1" parent="1">
          <mxGeometry x="1615" y="1200" width="30" height="20" as="geometry" />
        </mxCell>
        <mxCell id="U0DUnpZqwil9Vg-zqySL-169" value="1.*" style="text;html=1;align=center;verticalAlign=middle;resizable=0;points=[];autosize=1;strokeColor=none;fillColor=none;fontSize=11;" vertex="1" parent="1">
          <mxGeometry x="985" y="-260" width="30" height="20" as="geometry" />
        </mxCell>
        <mxCell id="U0DUnpZqwil9Vg-zqySL-170" value="1.1" style="text;html=1;align=center;verticalAlign=middle;resizable=0;points=[];autosize=1;strokeColor=none;fillColor=none;fontSize=11;" vertex="1" parent="1">
          <mxGeometry x="1305" y="-260" width="30" height="20" as="geometry" />
        </mxCell>
        <mxCell id="U0DUnpZqwil9Vg-zqySL-171" value="1.*" style="text;html=1;align=center;verticalAlign=middle;resizable=0;points=[];autosize=1;strokeColor=none;fillColor=none;fontSize=11;" vertex="1" parent="1">
          <mxGeometry x="1645" y="-260" width="30" height="20" as="geometry" />
        </mxCell>
        <mxCell id="U0DUnpZqwil9Vg-zqySL-172" value="*.*" style="text;html=1;align=center;verticalAlign=middle;resizable=0;points=[];autosize=1;strokeColor=none;fillColor=none;fontSize=11;" vertex="1" parent="1">
          <mxGeometry x="1850" y="-120" width="30" height="20" as="geometry" />
        </mxCell>
      </root>
    </mxGraphModel>
  </diagram>
</mxfile>
